<?xml version="1.0" encoding="UTF-8"?>
<svg xmlns="http://www.w3.org/2000/svg" width="1440" height="900" viewBox="0 0 1440 900" role="img" aria-label="P4a Проверка точности desktop">
  <title>P4a Проверка точности desktop</title>
  <rect width="1440" height="900" fill="#F2F6F4"/>
  <rect x="0" y="0" width="1440" height="82" rx="0" fill="#FFFFFF"/><circle cx="46" cy="34" r="8" fill="#006B66"/><text x="64" y="39" fill="#062D2E" font-family="Golos Text, Arial, sans-serif" font-size="12" font-weight="800" letter-spacing="1">WEC</text><rect x="1040" y="30" width="360" height="8" rx="4" fill="#DCE7E4"/><rect x="1040" y="30" width="205.7142857142857" height="8" rx="4" fill="#006B66"/><text x="1400" y="62" fill="#4F6B6A" font-family="IBM Plex Mono, monospace" font-size="10" font-weight="400" text-anchor="end">4/7</text><text x="40" y="876" fill="#4F6B6A" font-family="IBM Plex Mono, monospace" font-size="10" font-weight="400">P4a</text><text x="310" y="152" fill="#006B66" font-family="IBM Plex Mono, monospace" font-size="10" font-weight="400" letter-spacing="1">ПРОВЕРКА · 5 ТОЧЕК</text><text x="310" y="206" fill="#062D2E" font-family="Golos Text, Arial, sans-serif" font-size="38" font-weight="800">Точность достаточна</text><rect x="310" y="244" width="820" height="300" rx="14" fill="#062D2E"/><circle cx="457.6" cy="319" r="9" fill="#2563EB"/><circle cx="453.6" cy="322" r="4" fill="#F5C451"/><circle cx="900.4" cy="304" r="9" fill="#2563EB"/><circle cx="905.4" cy="307" r="4" fill="#F5C451"/><circle cx="720" cy="388" r="9" fill="#2563EB"/><circle cx="716" cy="391" r="4" fill="#F5C451"/><circle cx="490.4" cy="469" r="9" fill="#2563EB"/><circle cx="495.4" cy="472" r="4" fill="#F5C451"/><circle cx="949.6" cy="460" r="9" fill="#2563EB"/><circle cx="945.6" cy="463" r="4" fill="#F5C451"/><rect x="310" y="574" width="260" height="104" rx="14" fill="#062D2E" stroke="#062D2E" stroke-width="1"/><text x="328" y="608" fill="#9BC7C3" font-family="Golos Text, Arial, sans-serif" font-size="11" font-weight="700" letter-spacing="0.5">ОШИБКА</text><text x="328" y="656" fill="#FFFFFF" font-family="Golos Text, Arial, sans-serif" font-size="32" font-weight="700">1.6°</text><rect x="588" y="574" width="260" height="104" rx="14" fill="#2563EB" stroke="#2563EB" stroke-width="1"/><text x="606" y="608" fill="#FFE6DF" font-family="Golos Text, Arial, sans-serif" font-size="11" font-weight="700" letter-spacing="0.5">В ЦЕЛИ</text><text x="606" y="656" fill="#FFFFFF" font-family="Golos Text, Arial, sans-serif" font-size="32" font-weight="700">89%</text><rect x="866" y="612" width="120" height="28" rx="14" fill="#DCFAE6"/><text x="926" y="630" fill="#067647" font-family="Golos Text, Arial, sans-serif" font-size="11" font-weight="700" text-anchor="middle" letter-spacing="0.2">QC pass</text><rect x="310" y="708" width="820" height="44" rx="10" fill="#006B66" stroke="#006B66" stroke-width="1"/><text x="720" y="736" fill="#FFFFFF" font-family="Golos Text, Arial, sans-serif" font-size="13" font-weight="700" text-anchor="middle">Продолжить</text>
</svg>
