<?xml version="1.0" encoding="UTF-8"?>
<svg xmlns="http://www.w3.org/2000/svg" width="1440" height="900" viewBox="0 0 1440 900" role="img" aria-label="P4b Повторная калибровка desktop">
  <title>P4b Повторная калибровка desktop</title>
  <rect width="1440" height="900" fill="#F2F6F4"/>
  <rect x="0" y="0" width="1440" height="82" rx="0" fill="#FFFFFF"/><circle cx="46" cy="34" r="8" fill="#006B66"/><text x="64" y="39" fill="#062D2E" font-family="Golos Text, Arial, sans-serif" font-size="12" font-weight="800" letter-spacing="1">WEC</text><rect x="1040" y="30" width="360" height="8" rx="4" fill="#DCE7E4"/><rect x="1040" y="30" width="205.7142857142857" height="8" rx="4" fill="#006B66"/><text x="1400" y="62" fill="#4F6B6A" font-family="IBM Plex Mono, monospace" font-size="10" font-weight="400" text-anchor="end">4/7</text><text x="40" y="876" fill="#4F6B6A" font-family="IBM Plex Mono, monospace" font-size="10" font-weight="400">P4b</text><rect x="310" y="124" width="820" height="222" rx="14" fill="#B42318"/><text x="330" y="160" fill="#FEE4E2" font-family="IBM Plex Mono, monospace" font-size="10" font-weight="400" letter-spacing="1">QC · RETRY</text><text x="330" y="228" fill="#FFFFFF" font-family="Golos Text, Arial, sans-serif" font-size="40" font-weight="800">Точность ниже порога</text><rect x="310" y="382" width="260" height="104" rx="14" fill="#FFFFFF" stroke="#B7CCC7" stroke-width="1"/><text x="328" y="416" fill="#4F6B6A" font-family="Golos Text, Arial, sans-serif" font-size="11" font-weight="700" letter-spacing="0.5">ОШИБКА</text><text x="328" y="464" fill="#062D2E" font-family="Golos Text, Arial, sans-serif" font-size="32" font-weight="700">4.8°</text><rect x="588" y="382" width="260" height="104" rx="14" fill="#2563EB" stroke="#2563EB" stroke-width="1"/><text x="606" y="416" fill="#FFE6DF" font-family="Golos Text, Arial, sans-serif" font-size="11" font-weight="700" letter-spacing="0.5">В ЦЕЛИ</text><text x="606" y="464" fill="#FFFFFF" font-family="Golos Text, Arial, sans-serif" font-size="32" font-weight="700">54%</text><rect x="866" y="382" width="264" height="104" rx="14" fill="#FFF1E6"/><text x="884" y="418" fill="#B45309" font-family="Golos Text, Arial, sans-serif" font-size="12" font-weight="650">Проверьте свет</text><text x="884" y="440" fill="#B45309" font-family="Golos Text, Arial, sans-serif" font-size="12" font-weight="650">и положение камеры</text><text x="310" y="542" fill="#4F6B6A" font-family="Golos Text, Arial, sans-serif" font-size="14" font-weight="650">Результат не скрывается и не сглаживается.</text><rect x="310" y="602" width="820" height="44" rx="10" fill="#FFFFFF" stroke="#789692" stroke-width="1.5"/><text x="720" y="630" fill="#062D2E" font-family="Golos Text, Arial, sans-serif" font-size="13" font-weight="700" text-anchor="middle">Проверить устройство</text><rect x="310" y="658" width="820" height="44" rx="10" fill="#006B66" stroke="#006B66" stroke-width="1"/><text x="720" y="686" fill="#FFFFFF" font-family="Golos Text, Arial, sans-serif" font-size="13" font-weight="700" text-anchor="middle">Повторить калибровку</text>
</svg>
