<?xml version="1.0" encoding="UTF-8"?>
<svg xmlns="http://www.w3.org/2000/svg" width="1440" height="900" viewBox="0 0 1440 900" role="img" aria-label="R13 Шаблоны desktop">
  <title>R13 Шаблоны desktop</title>
  <rect width="1440" height="900" fill="#F2F6F4"/>
  <rect x="0" y="0" width="76" height="900" rx="0" fill="#062D2E"/><circle cx="38" cy="38" r="12" fill="#00A69D"/><circle cx="38" cy="38" r="4" fill="#FFFFFF"/><g color="#7FA09D"><path d="M30 155 L38 147 L46 155 V163 H41 V157 H35 V163 H30 Z" fill="none" stroke="currentColor" stroke-width="1.8" stroke-linejoin="round"/></g><g color="#7FA09D"><path d="M29 206 H36 L39 209 H47 V220 H29 Z" fill="none" stroke="currentColor" stroke-width="1.8" stroke-linejoin="round"/></g><rect x="12" y="248" width="52" height="44" rx="12" fill="#006B66"/><g color="#FFFFFF"><path d="M29 262 H34 V278 H29 Z M36 265 H41 V278 H36 Z M43 261 H48 V278 H43 Z" fill="none" stroke="currentColor" stroke-width="1.6"/></g><g color="#7FA09D"><path d="M29 336 V329 M36 336 V324 M43 336 V319 M28 336 H48" fill="none" stroke="currentColor" stroke-width="1.8" stroke-linecap="round"/></g><g color="#7FA09D"><circle cx="38" cy="386" r="8" fill="none" stroke="currentColor" stroke-width="1.8"/><circle cx="38" cy="386" r="2.5" fill="currentColor"/></g><g color="#7FA09D"><rect x="29" y="437" width="18" height="14" rx="2" fill="none" stroke="currentColor" stroke-width="1.8"/><path d="M29 442 H47" stroke="currentColor" stroke-width="1.8"/></g><line x1="20" y1="488" x2="56" y2="488" stroke="#315657" stroke-width="1"/><circle cx="38" cy="862" r="15" fill="#FFFFFF"/><text x="38" y="866" fill="#062D2E" font-family="Golos Text, Arial, sans-serif" font-size="11" font-weight="800" text-anchor="middle">В</text><text x="116" y="44" fill="#006B66" font-family="IBM Plex Mono, monospace" font-size="11" font-weight="700" letter-spacing="1">R13</text><text x="154" y="44" fill="#4F6B6A" font-family="IBM Plex Mono, monospace" font-size="10" font-weight="700" letter-spacing="0.8">БИБЛИОТЕКА</text><text x="116" y="82" fill="#062D2E" font-family="Golos Text, Arial, sans-serif" font-size="30" font-weight="750">Шаблоны</text><line x1="116" y1="106" x2="1392" y2="106" stroke="#B7CCC7" stroke-width="1"/><rect x="116" y="132" width="414" height="254" rx="14" fill="#062D2E" stroke="#062D2E" stroke-width="1"/><text x="138" y="170" fill="#F5C451" font-family="IBM Plex Mono, monospace" font-size="11" font-weight="400">T-01</text><text x="138" y="228" fill="#FFFFFF" font-family="Golos Text, Arial, sans-serif" font-size="22" font-weight="800">VPC</text><text x="138" y="264" fill="#9BC7C3" font-family="IBM Plex Mono, monospace" font-size="12" font-weight="400">10–15 мин</text><line x1="138" y1="306" x2="508" y2="306" stroke="#315657" stroke-width="1"/><text x="138" y="346" fill="#FFFFFF" font-family="Golos Text, Arial, sans-serif" font-size="13" font-weight="750">Создать →</text><rect x="546" y="132" width="414" height="254" rx="14" fill="#FFFFFF" stroke="#B7CCC7" stroke-width="1"/><text x="568" y="170" fill="#006B66" font-family="IBM Plex Mono, monospace" font-size="11" font-weight="400">T-02</text><text x="568" y="228" fill="#062D2E" font-family="Golos Text, Arial, sans-serif" font-size="22" font-weight="800">Gaze drawing</text><text x="568" y="264" fill="#4F6B6A" font-family="IBM Plex Mono, monospace" font-size="12" font-weight="400">5–8 мин</text><line x1="568" y1="306" x2="938" y2="306" stroke="#B7CCC7" stroke-width="1"/><text x="568" y="346" fill="#006B66" font-family="Golos Text, Arial, sans-serif" font-size="13" font-weight="750">Создать →</text><rect x="976" y="132" width="414" height="254" rx="14" fill="#FFFFFF" stroke="#B7CCC7" stroke-width="1"/><text x="998" y="170" fill="#006B66" font-family="IBM Plex Mono, monospace" font-size="11" font-weight="400">T-03</text><text x="998" y="228" fill="#062D2E" font-family="Golos Text, Arial, sans-serif" font-size="22" font-weight="800">Simple RT</text><text x="998" y="264" fill="#4F6B6A" font-family="IBM Plex Mono, monospace" font-size="12" font-weight="400">4–6 мин</text><line x1="998" y1="306" x2="1368" y2="306" stroke="#B7CCC7" stroke-width="1"/><text x="998" y="346" fill="#006B66" font-family="Golos Text, Arial, sans-serif" font-size="13" font-weight="750">Создать →</text><rect x="116" y="412" width="414" height="254" rx="14" fill="#FFFFFF" stroke="#B7CCC7" stroke-width="1"/><text x="138" y="450" fill="#006B66" font-family="IBM Plex Mono, monospace" font-size="11" font-weight="400">T-04</text><text x="138" y="508" fill="#062D2E" font-family="Golos Text, Arial, sans-serif" font-size="22" font-weight="800">Пассивный просмотр</text><text x="138" y="544" fill="#4F6B6A" font-family="IBM Plex Mono, monospace" font-size="12" font-weight="400">8–12 мин</text><line x1="138" y1="586" x2="508" y2="586" stroke="#B7CCC7" stroke-width="1"/><text x="138" y="626" fill="#006B66" font-family="Golos Text, Arial, sans-serif" font-size="13" font-weight="750">Создать →</text><rect x="546" y="412" width="414" height="254" rx="14" fill="#FFFFFF" stroke="#B7CCC7" stroke-width="1"/><text x="568" y="450" fill="#006B66" font-family="IBM Plex Mono, monospace" font-size="11" font-weight="400">T-05</text><text x="568" y="508" fill="#062D2E" font-family="Golos Text, Arial, sans-serif" font-size="22" font-weight="800">Визуальный поиск</text><text x="568" y="544" fill="#4F6B6A" font-family="IBM Plex Mono, monospace" font-size="12" font-weight="400">6–10 мин</text><line x1="568" y1="586" x2="938" y2="586" stroke="#B7CCC7" stroke-width="1"/><text x="568" y="626" fill="#006B66" font-family="Golos Text, Arial, sans-serif" font-size="13" font-weight="750">Создать →</text><rect x="976" y="412" width="414" height="254" rx="14" fill="#FFFFFF" stroke="#B7CCC7" stroke-width="1"/><text x="998" y="450" fill="#006B66" font-family="IBM Plex Mono, monospace" font-size="11" font-weight="400">T-06</text><text x="998" y="508" fill="#062D2E" font-family="Golos Text, Arial, sans-serif" font-size="22" font-weight="800">Пустой</text><text x="998" y="544" fill="#4F6B6A" font-family="IBM Plex Mono, monospace" font-size="12" font-weight="400">—</text><line x1="998" y1="586" x2="1368" y2="586" stroke="#B7CCC7" stroke-width="1"/><text x="998" y="626" fill="#006B66" font-family="Golos Text, Arial, sans-serif" font-size="13" font-weight="750">Создать →</text>
</svg>
