<?xml version="1.0" encoding="UTF-8"?>
<svg xmlns="http://www.w3.org/2000/svg" width="1440" height="900" viewBox="0 0 1440 900" role="img" aria-label="R8 Мониторинг desktop">
  <title>R8 Мониторинг desktop</title>
  <rect width="1440" height="900" fill="#F2F6F4"/>
  <rect x="0" y="0" width="76" height="900" rx="0" fill="#062D2E"/><circle cx="38" cy="38" r="12" fill="#00A69D"/><circle cx="38" cy="38" r="4" fill="#FFFFFF"/><g color="#7FA09D"><path d="M30 155 L38 147 L46 155 V163 H41 V157 H35 V163 H30 Z" fill="none" stroke="currentColor" stroke-width="1.8" stroke-linejoin="round"/></g><rect x="12" y="190" width="52" height="44" rx="12" fill="#006B66"/><g color="#FFFFFF"><path d="M29 206 H36 L39 209 H47 V220 H29 Z" fill="none" stroke="currentColor" stroke-width="1.8" stroke-linejoin="round"/></g><g color="#7FA09D"><path d="M29 262 H34 V278 H29 Z M36 265 H41 V278 H36 Z M43 261 H48 V278 H43 Z" fill="none" stroke="currentColor" stroke-width="1.6"/></g><g color="#7FA09D"><path d="M29 336 V329 M36 336 V324 M43 336 V319 M28 336 H48" fill="none" stroke="currentColor" stroke-width="1.8" stroke-linecap="round"/></g><g color="#7FA09D"><circle cx="38" cy="386" r="8" fill="none" stroke="currentColor" stroke-width="1.8"/><circle cx="38" cy="386" r="2.5" fill="currentColor"/></g><g color="#7FA09D"><rect x="29" y="437" width="18" height="14" rx="2" fill="none" stroke="currentColor" stroke-width="1.8"/><path d="M29 442 H47" stroke="currentColor" stroke-width="1.8"/></g><line x1="20" y1="488" x2="56" y2="488" stroke="#315657" stroke-width="1"/><circle cx="38" cy="862" r="15" fill="#FFFFFF"/><text x="38" y="866" fill="#062D2E" font-family="Golos Text, Arial, sans-serif" font-size="11" font-weight="800" text-anchor="middle">В</text><text x="116" y="44" fill="#006B66" font-family="IBM Plex Mono, monospace" font-size="11" font-weight="700" letter-spacing="1">R8</text><text x="154" y="44" fill="#4F6B6A" font-family="IBM Plex Mono, monospace" font-size="10" font-weight="700" letter-spacing="0.8">ПРОЕКТЫ / WEC-014</text><text x="116" y="82" fill="#062D2E" font-family="Golos Text, Arial, sans-serif" font-size="30" font-weight="750">Мониторинг</text><line x1="116" y1="106" x2="1392" y2="106" stroke="#B7CCC7" stroke-width="1"/><rect x="116" y="114" width="1276" height="42" rx="10" fill="#FFFFFF" stroke="#B7CCC7" stroke-width="1"/><text x="186" y="140" fill="#4F6B6A" font-family="Golos Text, Arial, sans-serif" font-size="11" font-weight="700" text-anchor="middle">Обзор</text><text x="318" y="140" fill="#4F6B6A" font-family="Golos Text, Arial, sans-serif" font-size="11" font-weight="700" text-anchor="middle">Протоколы</text><text x="450" y="140" fill="#4F6B6A" font-family="Golos Text, Arial, sans-serif" font-size="11" font-weight="700" text-anchor="middle">Участники</text><rect x="520" y="121" width="124" height="28" rx="8" fill="#062D2E"/><text x="582" y="140" fill="#FFFFFF" font-family="Golos Text, Arial, sans-serif" font-size="11" font-weight="700" text-anchor="middle">Мониторинг</text><text x="714" y="140" fill="#4F6B6A" font-family="Golos Text, Arial, sans-serif" font-size="11" font-weight="700" text-anchor="middle">Результаты</text><text x="1372" y="140" fill="#4F6B6A" font-family="Golos Text, Arial, sans-serif" font-size="11" font-weight="700" text-anchor="end">Настройки</text><rect x="116" y="170" width="298" height="118" rx="14" fill="#062D2E" stroke="#062D2E" stroke-width="1"/><text x="134" y="204" fill="#9BC7C3" font-family="Golos Text, Arial, sans-serif" font-size="11" font-weight="700" letter-spacing="0.5">СЕЙЧАС</text><text x="134" y="252" fill="#FFFFFF" font-family="Golos Text, Arial, sans-serif" font-size="32" font-weight="700">6</text><rect x="428" y="170" width="298" height="118" rx="14" fill="#FFFFFF" stroke="#B7CCC7" stroke-width="1"/><text x="446" y="204" fill="#4F6B6A" font-family="Golos Text, Arial, sans-serif" font-size="11" font-weight="700" letter-spacing="0.5">ЗАВЕРШИЛИ СЕГОДНЯ</text><text x="446" y="252" fill="#062D2E" font-family="Golos Text, Arial, sans-serif" font-size="32" font-weight="700">24</text><rect x="740" y="170" width="298" height="118" rx="14" fill="#FFFFFF" stroke="#B7CCC7" stroke-width="1"/><text x="758" y="204" fill="#4F6B6A" font-family="Golos Text, Arial, sans-serif" font-size="11" font-weight="700" letter-spacing="0.5">ПОГРАНИЧНЫЙ QC</text><text x="758" y="252" fill="#062D2E" font-family="Golos Text, Arial, sans-serif" font-size="32" font-weight="700">5</text><rect x="1052" y="170" width="340" height="118" rx="14" fill="#2563EB" stroke="#2563EB" stroke-width="1"/><text x="1070" y="204" fill="#FFE6DF" font-family="Golos Text, Arial, sans-serif" font-size="11" font-weight="700" letter-spacing="0.5">INVALID</text><text x="1070" y="252" fill="#FFFFFF" font-family="Golos Text, Arial, sans-serif" font-size="32" font-weight="700">2</text><rect x="116" y="312" width="790" height="396" rx="14" fill="#062D2E"/><text x="140" y="350" fill="#FFFFFF" font-family="Golos Text, Arial, sans-serif" font-size="18" font-weight="750">Поток · 6 часов</text><text x="858" y="350" fill="#9BC7C3" font-family="IBM Plex Mono, monospace" font-size="11" font-weight="400" text-anchor="end">30 мин</text><line x1="140" y1="632" x2="882" y2="632" stroke="#315657" stroke-width="1"/><polygon points="140,632 140,632 222.44444444444446,594.3636363636364 304.8888888888889,560.9090909090909 387.3333333333333,527.4545454545455 469.77777777777777,552.5454545454545 552.2222222222222,477.27272727272725 634.6666666666666,448 717.1111111111111,494 799.5555555555555,427.0909090909091 882,402 882,632" fill="#174748" opacity="0.85"/><polyline points="140,632 222.44444444444446,594.3636363636364 304.8888888888889,560.9090909090909 387.3333333333333,527.4545454545455 469.77777777777777,552.5454545454545 552.2222222222222,477.27272727272725 634.6666666666666,448 717.1111111111111,494 799.5555555555555,427.0909090909091 882,402" fill="none" stroke="#F5C451" stroke-width="3" stroke-linecap="round" stroke-linejoin="round"/><circle cx="882" cy="402" r="5" fill="#F5C451" stroke="#FFFFFF" stroke-width="2"/><rect x="920" y="312" width="472" height="396" rx="14" fill="#FFFFFF" stroke="#B7CCC7" stroke-width="1"/><text x="944" y="350" fill="#062D2E" font-family="Golos Text, Arial, sans-serif" font-size="18" font-weight="750">Причины QC</text><text x="958" y="397" fill="#062D2E" font-family="Golos Text, Arial, sans-serif" font-size="14" font-weight="650">Плохой свет</text><text x="1354" y="406" fill="#062D2E" font-family="IBM Plex Mono, monospace" font-size="12" font-weight="700" text-anchor="end">33%</text><line x1="944" y1="434" x2="1368" y2="434" stroke="#B7CCC7" stroke-width="1"/><text x="958" y="459" fill="#062D2E" font-family="Golos Text, Arial, sans-serif" font-size="14" font-weight="650">Потеря лица</text><text x="1354" y="468" fill="#062D2E" font-family="IBM Plex Mono, monospace" font-size="12" font-weight="700" text-anchor="end">21%</text><line x1="944" y1="496" x2="1368" y2="496" stroke="#B7CCC7" stroke-width="1"/><text x="958" y="521" fill="#062D2E" font-family="Golos Text, Arial, sans-serif" font-size="14" font-weight="650">Низкий FPS</text><text x="1354" y="530" fill="#062D2E" font-family="IBM Plex Mono, monospace" font-size="12" font-weight="700" text-anchor="end">17%</text><line x1="944" y1="558" x2="1368" y2="558" stroke="#B7CCC7" stroke-width="1"/><text x="958" y="583" fill="#062D2E" font-family="Golos Text, Arial, sans-serif" font-size="14" font-weight="650">Вне viewport</text><text x="1354" y="592" fill="#062D2E" font-family="IBM Plex Mono, monospace" font-size="12" font-weight="700" text-anchor="end">12%</text><line x1="944" y1="620" x2="1368" y2="620" stroke="#B7CCC7" stroke-width="1"/><rect x="116" y="722" width="1276" height="72" rx="14" fill="#FFF1E6"/><text x="136" y="754" fill="#B42318" font-family="Golos Text, Arial, sans-serif" font-size="15" font-weight="750">Low confidence и off-screen не притягиваются к цели</text><text x="1372" y="754" fill="#062D2E" font-family="IBM Plex Mono, monospace" font-size="12" font-weight="400" text-anchor="end">технические события</text>
</svg>
