<?xml version="1.0" encoding="UTF-8"?>
<svg xmlns="http://www.w3.org/2000/svg" width="1440" height="900" viewBox="0 0 1440 900" role="img" aria-label="R9 Результаты desktop">
  <title>R9 Результаты desktop</title>
  <rect width="1440" height="900" fill="#F2F6F4"/>
  <rect x="0" y="0" width="76" height="900" rx="0" fill="#062D2E"/><circle cx="38" cy="38" r="12" fill="#00A69D"/><circle cx="38" cy="38" r="4" fill="#FFFFFF"/><g color="#7FA09D"><path d="M30 155 L38 147 L46 155 V163 H41 V157 H35 V163 H30 Z" fill="none" stroke="currentColor" stroke-width="1.8" stroke-linejoin="round"/></g><rect x="12" y="190" width="52" height="44" rx="12" fill="#006B66"/><g color="#FFFFFF"><path d="M29 206 H36 L39 209 H47 V220 H29 Z" fill="none" stroke="currentColor" stroke-width="1.8" stroke-linejoin="round"/></g><g color="#7FA09D"><path d="M29 262 H34 V278 H29 Z M36 265 H41 V278 H36 Z M43 261 H48 V278 H43 Z" fill="none" stroke="currentColor" stroke-width="1.6"/></g><g color="#7FA09D"><path d="M29 336 V329 M36 336 V324 M43 336 V319 M28 336 H48" fill="none" stroke="currentColor" stroke-width="1.8" stroke-linecap="round"/></g><g color="#7FA09D"><circle cx="38" cy="386" r="8" fill="none" stroke="currentColor" stroke-width="1.8"/><circle cx="38" cy="386" r="2.5" fill="currentColor"/></g><g color="#7FA09D"><rect x="29" y="437" width="18" height="14" rx="2" fill="none" stroke="currentColor" stroke-width="1.8"/><path d="M29 442 H47" stroke="currentColor" stroke-width="1.8"/></g><line x1="20" y1="488" x2="56" y2="488" stroke="#315657" stroke-width="1"/><circle cx="38" cy="862" r="15" fill="#FFFFFF"/><text x="38" y="866" fill="#062D2E" font-family="Golos Text, Arial, sans-serif" font-size="11" font-weight="800" text-anchor="middle">В</text><text x="116" y="44" fill="#006B66" font-family="IBM Plex Mono, monospace" font-size="11" font-weight="700" letter-spacing="1">R9</text><text x="154" y="44" fill="#4F6B6A" font-family="IBM Plex Mono, monospace" font-size="10" font-weight="700" letter-spacing="0.8">ПРОЕКТЫ / WEC-014</text><text x="116" y="82" fill="#062D2E" font-family="Golos Text, Arial, sans-serif" font-size="30" font-weight="750">Результаты</text><rect x="1260" y="42" width="132" height="44" rx="10" fill="#062D2E" stroke="#062D2E" stroke-width="1"/><text x="1326" y="70" fill="#FFFFFF" font-family="Golos Text, Arial, sans-serif" font-size="13" font-weight="700" text-anchor="middle">Экспорт</text><line x1="116" y1="106" x2="1392" y2="106" stroke="#B7CCC7" stroke-width="1"/><rect x="116" y="114" width="1276" height="42" rx="10" fill="#FFFFFF" stroke="#B7CCC7" stroke-width="1"/><text x="186" y="140" fill="#4F6B6A" font-family="Golos Text, Arial, sans-serif" font-size="11" font-weight="700" text-anchor="middle">Обзор</text><text x="318" y="140" fill="#4F6B6A" font-family="Golos Text, Arial, sans-serif" font-size="11" font-weight="700" text-anchor="middle">Протоколы</text><text x="450" y="140" fill="#4F6B6A" font-family="Golos Text, Arial, sans-serif" font-size="11" font-weight="700" text-anchor="middle">Участники</text><text x="582" y="140" fill="#4F6B6A" font-family="Golos Text, Arial, sans-serif" font-size="11" font-weight="700" text-anchor="middle">Мониторинг</text><rect x="652" y="121" width="124" height="28" rx="8" fill="#062D2E"/><text x="714" y="140" fill="#FFFFFF" font-family="Golos Text, Arial, sans-serif" font-size="11" font-weight="700" text-anchor="middle">Результаты</text><text x="1372" y="140" fill="#4F6B6A" font-family="Golos Text, Arial, sans-serif" font-size="11" font-weight="700" text-anchor="end">Настройки</text><rect x="116" y="170" width="298" height="118" rx="14" fill="#062D2E" stroke="#062D2E" stroke-width="1"/><text x="134" y="204" fill="#9BC7C3" font-family="Golos Text, Arial, sans-serif" font-size="11" font-weight="700" letter-spacing="0.5">В ВЫБОРКЕ</text><text x="134" y="252" fill="#FFFFFF" font-family="Golos Text, Arial, sans-serif" font-size="32" font-weight="700">118</text><rect x="428" y="170" width="298" height="118" rx="14" fill="#2563EB" stroke="#2563EB" stroke-width="1"/><text x="446" y="204" fill="#FFE6DF" font-family="Golos Text, Arial, sans-serif" font-size="11" font-weight="700" letter-spacing="0.5">GAZE ON TARGET</text><text x="446" y="252" fill="#FFFFFF" font-family="Golos Text, Arial, sans-serif" font-size="32" font-weight="700">72%</text><rect x="740" y="170" width="298" height="118" rx="14" fill="#FFFFFF" stroke="#B7CCC7" stroke-width="1"/><text x="758" y="204" fill="#4F6B6A" font-family="Golos Text, Arial, sans-serif" font-size="11" font-weight="700" letter-spacing="0.5">BLINKS / МИН</text><text x="758" y="252" fill="#062D2E" font-family="Golos Text, Arial, sans-serif" font-size="32" font-weight="700">17.4</text><rect x="1052" y="170" width="340" height="118" rx="14" fill="#FFFFFF" stroke="#B7CCC7" stroke-width="1"/><text x="1070" y="204" fill="#4F6B6A" font-family="Golos Text, Arial, sans-serif" font-size="11" font-weight="700" letter-spacing="0.5">RT · МЕДИАНА</text><text x="1070" y="252" fill="#062D2E" font-family="IBM Plex Mono, monospace" font-size="32" font-weight="700">418</text><rect x="116" y="306" width="100" height="28" rx="14" fill="#DCFAE6"/><text x="166" y="324" fill="#067647" font-family="Golos Text, Arial, sans-serif" font-size="11" font-weight="700" text-anchor="middle" letter-spacing="0.2">valid only</text><rect x="228" y="306" width="94" height="28" rx="14" fill="#E7EEFF"/><text x="275" y="324" fill="#2563EB" font-family="Golos Text, Arial, sans-serif" font-size="11" font-weight="700" text-anchor="middle" letter-spacing="0.2">AOI A/B</text><rect x="334" y="306" width="132" height="28" rx="14" fill="#F2F6F4"/><text x="400" y="324" fill="#4F6B6A" font-family="Golos Text, Arial, sans-serif" font-size="11" font-weight="700" text-anchor="middle" letter-spacing="0.2">Основной · v3</text><rect x="116" y="348" width="790" height="410" rx="14" fill="#FFFFFF" stroke="#B7CCC7" stroke-width="1"/><text x="134" y="378" fill="#062D2E" font-family="Golos Text, Arial, sans-serif" font-size="18" font-weight="750">Карта внимания</text><text x="888" y="378" fill="#4F6B6A" font-family="IBM Plex Mono, monospace" font-size="10" font-weight="400" text-anchor="end">n=118</text><rect x="134" y="406" width="754" height="300" rx="10" fill="#E5ECE9"/><rect x="194.32" y="454" width="271.44" height="168.00000000000003" rx="8" fill="#FFFFFF" stroke="#789692" stroke-width="1.5" stroke-dasharray="5 4"/><rect x="556.24" y="454" width="271.44" height="168.00000000000003" rx="8" fill="#FFFFFF" stroke="#789692" stroke-width="1.5" stroke-dasharray="5 4"/><text x="216.94" y="481" fill="#4F6B6A" font-family="IBM Plex Mono, monospace" font-size="10" font-weight="400">AOI A</text><text x="578.8599999999999" y="481" fill="#4F6B6A" font-family="IBM Plex Mono, monospace" font-size="10" font-weight="400">AOI B</text><circle cx="367.74" cy="532" r="42" fill="#006B66" opacity="0.3"/><circle cx="397.9" cy="544" r="26" fill="#006B66" opacity="0.55"/><circle cx="654.26" cy="520" r="38" fill="#2563EB" opacity="0.28"/><circle cx="631.6400000000001" cy="532" r="22" fill="#2563EB" opacity="0.52"/><circle cx="563.78" cy="610" r="30" fill="#6941C6" opacity="0.28"/><circle cx="138" cy="738" r="5" fill="#006B66"/><text x="150" y="742" fill="#4F6B6A" font-family="Golos Text, Arial, sans-serif" font-size="10" font-weight="400">gaze</text><circle cx="236" cy="738" r="5" fill="#2563EB"/><text x="248" y="742" fill="#4F6B6A" font-family="Golos Text, Arial, sans-serif" font-size="10" font-weight="400">вовлечённость</text><circle cx="378" cy="738" r="5" fill="#6941C6"/><text x="390" y="742" fill="#4F6B6A" font-family="Golos Text, Arial, sans-serif" font-size="10" font-weight="400">valence</text><rect x="920" y="348" width="472" height="410" rx="14" fill="#062D2E"/><text x="944" y="386" fill="#FFFFFF" font-family="Golos Text, Arial, sans-serif" font-size="18" font-weight="750">Контекст данных</text><rect x="944" y="416" width="200" height="108" rx="14" fill="#2563EB" stroke="#2563EB" stroke-width="1"/><text x="962" y="450" fill="#FFE6DF" font-family="Golos Text, Arial, sans-serif" font-size="11" font-weight="700" letter-spacing="0.5">VALID</text><text x="962" y="498" fill="#FFFFFF" font-family="Golos Text, Arial, sans-serif" font-size="32" font-weight="700">118</text><rect x="1156" y="416" width="188" height="108" rx="14" fill="#FFFFFF" stroke="#B7CCC7" stroke-width="1"/><text x="1174" y="450" fill="#4F6B6A" font-family="Golos Text, Arial, sans-serif" font-size="11" font-weight="700" letter-spacing="0.5">ИСКЛЮЧЕНО</text><text x="1174" y="498" fill="#062D2E" font-family="Golos Text, Arial, sans-serif" font-size="32" font-weight="700">23</text><text x="944" y="568" fill="#9BC7C3" font-family="IBM Plex Mono, monospace" font-size="10" font-weight="400" letter-spacing="1">СЛОИ</text><rect x="944" y="588" width="76" height="28" rx="14" fill="#DCFAE6"/><text x="982" y="606" fill="#067647" font-family="Golos Text, Arial, sans-serif" font-size="11" font-weight="700" text-anchor="middle" letter-spacing="0.2">gaze</text><rect x="1032" y="588" width="108" height="28" rx="14" fill="#E7EEFF"/><text x="1086" y="606" fill="#2563EB" font-family="Golos Text, Arial, sans-serif" font-size="11" font-weight="700" text-anchor="middle" letter-spacing="0.2">engagement</text><rect x="1152" y="588" width="88" height="28" rx="14" fill="#F1EBFF"/><text x="1196" y="606" fill="#6941C6" font-family="Golos Text, Arial, sans-serif" font-size="11" font-weight="700" text-anchor="middle" letter-spacing="0.2">valence</text><text x="944" y="656" fill="#9BC7C3" font-family="IBM Plex Mono, monospace" font-size="12" font-weight="400">gaze v3 · emotion v2</text><text x="944" y="680" fill="#9BC7C3" font-family="IBM Plex Mono, monospace" font-size="12" font-weight="400">qc contract 1.0</text><rect x="944" y="696" width="400" height="44" rx="10" fill="#006B66" stroke="#006B66" stroke-width="1"/><text x="1144" y="724" fill="#FFFFFF" font-family="Golos Text, Arial, sans-serif" font-size="13" font-weight="700" text-anchor="middle">Экспорт</text>
</svg>
